M48
; DRILL file {KiCad 7.0.11+dfsg-1build4} date Mon 30 Dec 2024 05:53:06 PM GMT
; FORMAT={-:-/ absolute / metric / decimal}
; #@! TF.CreationDate,2024-12-30T17:53:06+00:00
; #@! TF.GenerationSoftware,Kicad,Pcbnew,7.0.11+dfsg-1build4
; #@! TF.FileFunction,Plated,1,2,PTH
FMAT,2
METRIC
; #@! TA.AperFunction,Plated,PTH,ViaDrill
T1C0.300
; #@! TA.AperFunction,Plated,PTH,ComponentDrill
T2C0.700
; #@! TA.AperFunction,Plated,PTH,ComponentDrill
T3C0.800
; #@! TA.AperFunction,Plated,PTH,ComponentDrill
T4C0.900
; #@! TA.AperFunction,Plated,PTH,ComponentDrill
T5C1.000
; #@! TA.AperFunction,Plated,PTH,ComponentDrill
T6C1.100
%
G90
G05
T1
X93.011Y-75.465
X95.05Y-66.063
X96.882Y-60.688
X97.52Y-82.904
X99.509Y-104.148
X100.041Y-68.762
X100.323Y-70.499
X107.083Y-91.642
X117.733Y-129.217
X129.54Y-108.187
X137.554Y-96.953
X139.42Y-77.507
X139.608Y-91.849
X140.441Y-93.339
X140.513Y-85.04
X140.6Y-73.187
X143.669Y-119.316
X154.635Y-77.28
T2
X89.154Y-117.348
X96.774Y-117.348
X129.724Y-114.808
X129.764Y-117.348
X129.794Y-112.268
X137.344Y-114.808
X137.384Y-117.348
X137.414Y-112.268
T3
X86.407Y-97.862
X88.488Y-99.319
X88.819Y-107.508
X88.819Y-112.588
X90.568Y-100.776
X91.359Y-110.048
X92.649Y-102.233
X94.729Y-103.69
X95.148Y-85.378
X95.649Y-123.9
X95.655Y-64.675
X96.81Y-105.147
X97.229Y-86.835
X98.247Y-125.4
X98.253Y-63.175
X98.891Y-106.604
X99.309Y-88.292
X100.971Y-108.06
X101.39Y-89.749
X103.052Y-109.517
X103.471Y-91.206
X105.133Y-110.974
X105.551Y-92.663
X107.213Y-112.431
X107.632Y-94.12
X109.294Y-113.888
X109.713Y-95.577
X111.375Y-115.345
X111.793Y-97.033
X113.455Y-116.802
X113.874Y-98.49
X115.536Y-118.259
X115.955Y-99.947
X118.035Y-101.404
X120.116Y-102.861
X122.197Y-104.318
X124.277Y-105.775
X136.144Y-86.868
X136.144Y-89.408
X136.144Y-91.948
X136.144Y-94.488
X136.144Y-97.028
X136.144Y-99.568
X136.144Y-102.108
X143.764Y-86.868
X143.764Y-89.408
X143.764Y-91.948
X143.764Y-94.488
X143.764Y-97.028
X143.764Y-99.568
X143.764Y-102.108
X148.864Y-85.248
X148.864Y-88.248
T4
X86.714Y-93.02
X86.714Y-95.56
X89.944Y-91.658
X89.944Y-94.198
X89.944Y-96.738
X90.494Y-68.03
X90.538Y-120.554
X92.29Y-66.234
X92.334Y-122.35
X116.224Y-65.25
X116.374Y-123.173
X117.404Y-62.02
X117.734Y-126.31
X118.764Y-65.25
X118.914Y-123.173
X119.944Y-62.02
X120.274Y-126.31
X121.304Y-65.25
X121.454Y-123.173
X145.448Y-66.444
X145.464Y-122.44
X147.244Y-68.24
X147.26Y-120.644
X148.239Y-91.96
X148.239Y-94.5
X148.239Y-97.04
X151.534Y-93.26
X151.534Y-95.8
T5
X101.064Y-73.648
X101.064Y-76.188
X103.492Y-65.024
X103.594Y-81.788
X103.594Y-84.328
X103.604Y-73.648
X103.604Y-76.188
X106.032Y-65.024
X106.144Y-73.648
X106.144Y-76.188
X108.684Y-73.648
X108.684Y-76.188
X111.224Y-73.648
X111.224Y-76.188
X113.764Y-73.648
X113.764Y-76.188
X116.304Y-73.648
X116.304Y-76.188
X118.844Y-73.648
X118.844Y-76.188
X121.384Y-73.648
X121.384Y-76.188
X123.924Y-73.648
X123.924Y-76.188
X126.464Y-73.648
X126.464Y-76.188
X129.004Y-73.648
X129.004Y-76.188
X129.54Y-86.614
X129.54Y-89.154
X129.54Y-101.854
X130.674Y-64.4
X131.544Y-73.648
X131.544Y-76.188
X132.08Y-86.614
X132.08Y-89.154
X132.08Y-101.854
X133.214Y-64.4
X134.084Y-73.648
X134.084Y-76.188
X135.754Y-64.4
X136.624Y-73.648
X136.624Y-76.188
X138.294Y-64.4
X149.194Y-72.024
X149.264Y-116.38
X150.267Y-74.326
X150.337Y-114.078
X151.341Y-76.628
X151.411Y-111.776
X152.414Y-78.93
X152.484Y-109.474
T6
X84.754Y-75.458
X84.754Y-81.958
X89.254Y-75.458
X89.254Y-81.958
M30
