G04 #@! TF.GenerationSoftware,KiCad,Pcbnew,7.0.11+dfsg-1build4*
G04 #@! TF.CreationDate,2024-12-30T17:53:10+00:00*
G04 #@! TF.ProjectId,Swarm-B_20230626,53776172-6d2d-4425-9f32-303233303632,rev?*
G04 #@! TF.SameCoordinates,Original*
G04 #@! TF.FileFunction,AssemblyDrawing,Top*
%FSLAX46Y46*%
G04 Gerber Fmt 4.6, Leading zero omitted, Abs format (unit mm)*
G04 Created by KiCad (PCBNEW 7.0.11+dfsg-1build4) date 2024-12-30 17:53:10*
%MOMM*%
%LPD*%
G01*
G04 APERTURE LIST*
%ADD10C,0.150000*%
%ADD11C,0.108000*%
%ADD12C,0.100000*%
G04 APERTURE END LIST*
D10*
X87620819Y-95094904D02*
X88430342Y-95094904D01*
X88430342Y-95094904D02*
X88525580Y-95047285D01*
X88525580Y-95047285D02*
X88573200Y-94999666D01*
X88573200Y-94999666D02*
X88620819Y-94904428D01*
X88620819Y-94904428D02*
X88620819Y-94713952D01*
X88620819Y-94713952D02*
X88573200Y-94618714D01*
X88573200Y-94618714D02*
X88525580Y-94571095D01*
X88525580Y-94571095D02*
X88430342Y-94523476D01*
X88430342Y-94523476D02*
X87620819Y-94523476D01*
X87954152Y-93618714D02*
X88620819Y-93618714D01*
X87573200Y-93856809D02*
X88287485Y-94094904D01*
X88287485Y-94094904D02*
X88287485Y-93475857D01*
X103048819Y-83391333D02*
X103763104Y-83391333D01*
X103763104Y-83391333D02*
X103905961Y-83438952D01*
X103905961Y-83438952D02*
X104001200Y-83534190D01*
X104001200Y-83534190D02*
X104048819Y-83677047D01*
X104048819Y-83677047D02*
X104048819Y-83772285D01*
X103048819Y-83010380D02*
X103048819Y-82391333D01*
X103048819Y-82391333D02*
X103429771Y-82724666D01*
X103429771Y-82724666D02*
X103429771Y-82581809D01*
X103429771Y-82581809D02*
X103477390Y-82486571D01*
X103477390Y-82486571D02*
X103525009Y-82438952D01*
X103525009Y-82438952D02*
X103620247Y-82391333D01*
X103620247Y-82391333D02*
X103858342Y-82391333D01*
X103858342Y-82391333D02*
X103953580Y-82438952D01*
X103953580Y-82438952D02*
X104001200Y-82486571D01*
X104001200Y-82486571D02*
X104048819Y-82581809D01*
X104048819Y-82581809D02*
X104048819Y-82867523D01*
X104048819Y-82867523D02*
X104001200Y-82962761D01*
X104001200Y-82962761D02*
X103953580Y-83010380D01*
X152218819Y-86914666D02*
X151742628Y-87247999D01*
X152218819Y-87486094D02*
X151218819Y-87486094D01*
X151218819Y-87486094D02*
X151218819Y-87105142D01*
X151218819Y-87105142D02*
X151266438Y-87009904D01*
X151266438Y-87009904D02*
X151314057Y-86962285D01*
X151314057Y-86962285D02*
X151409295Y-86914666D01*
X151409295Y-86914666D02*
X151552152Y-86914666D01*
X151552152Y-86914666D02*
X151647390Y-86962285D01*
X151647390Y-86962285D02*
X151695009Y-87009904D01*
X151695009Y-87009904D02*
X151742628Y-87105142D01*
X151742628Y-87105142D02*
X151742628Y-87486094D01*
X151218819Y-86057523D02*
X151218819Y-86247999D01*
X151218819Y-86247999D02*
X151266438Y-86343237D01*
X151266438Y-86343237D02*
X151314057Y-86390856D01*
X151314057Y-86390856D02*
X151456914Y-86486094D01*
X151456914Y-86486094D02*
X151647390Y-86533713D01*
X151647390Y-86533713D02*
X152028342Y-86533713D01*
X152028342Y-86533713D02*
X152123580Y-86486094D01*
X152123580Y-86486094D02*
X152171200Y-86438475D01*
X152171200Y-86438475D02*
X152218819Y-86343237D01*
X152218819Y-86343237D02*
X152218819Y-86152761D01*
X152218819Y-86152761D02*
X152171200Y-86057523D01*
X152171200Y-86057523D02*
X152123580Y-86009904D01*
X152123580Y-86009904D02*
X152028342Y-85962285D01*
X152028342Y-85962285D02*
X151790247Y-85962285D01*
X151790247Y-85962285D02*
X151695009Y-86009904D01*
X151695009Y-86009904D02*
X151647390Y-86057523D01*
X151647390Y-86057523D02*
X151599771Y-86152761D01*
X151599771Y-86152761D02*
X151599771Y-86343237D01*
X151599771Y-86343237D02*
X151647390Y-86438475D01*
X151647390Y-86438475D02*
X151695009Y-86486094D01*
X151695009Y-86486094D02*
X151790247Y-86533713D01*
X130476666Y-101308819D02*
X130476666Y-102023104D01*
X130476666Y-102023104D02*
X130429047Y-102165961D01*
X130429047Y-102165961D02*
X130333809Y-102261200D01*
X130333809Y-102261200D02*
X130190952Y-102308819D01*
X130190952Y-102308819D02*
X130095714Y-102308819D01*
X131429047Y-101308819D02*
X130952857Y-101308819D01*
X130952857Y-101308819D02*
X130905238Y-101785009D01*
X130905238Y-101785009D02*
X130952857Y-101737390D01*
X130952857Y-101737390D02*
X131048095Y-101689771D01*
X131048095Y-101689771D02*
X131286190Y-101689771D01*
X131286190Y-101689771D02*
X131381428Y-101737390D01*
X131381428Y-101737390D02*
X131429047Y-101785009D01*
X131429047Y-101785009D02*
X131476666Y-101880247D01*
X131476666Y-101880247D02*
X131476666Y-102118342D01*
X131476666Y-102118342D02*
X131429047Y-102213580D01*
X131429047Y-102213580D02*
X131381428Y-102261200D01*
X131381428Y-102261200D02*
X131286190Y-102308819D01*
X131286190Y-102308819D02*
X131048095Y-102308819D01*
X131048095Y-102308819D02*
X130952857Y-102261200D01*
X130952857Y-102261200D02*
X130905238Y-102213580D01*
X130476666Y-86068819D02*
X130476666Y-86783104D01*
X130476666Y-86783104D02*
X130429047Y-86925961D01*
X130429047Y-86925961D02*
X130333809Y-87021200D01*
X130333809Y-87021200D02*
X130190952Y-87068819D01*
X130190952Y-87068819D02*
X130095714Y-87068819D01*
X130905238Y-86164057D02*
X130952857Y-86116438D01*
X130952857Y-86116438D02*
X131048095Y-86068819D01*
X131048095Y-86068819D02*
X131286190Y-86068819D01*
X131286190Y-86068819D02*
X131381428Y-86116438D01*
X131381428Y-86116438D02*
X131429047Y-86164057D01*
X131429047Y-86164057D02*
X131476666Y-86259295D01*
X131476666Y-86259295D02*
X131476666Y-86354533D01*
X131476666Y-86354533D02*
X131429047Y-86497390D01*
X131429047Y-86497390D02*
X130857619Y-87068819D01*
X130857619Y-87068819D02*
X131476666Y-87068819D01*
X130476666Y-88608819D02*
X130476666Y-89323104D01*
X130476666Y-89323104D02*
X130429047Y-89465961D01*
X130429047Y-89465961D02*
X130333809Y-89561200D01*
X130333809Y-89561200D02*
X130190952Y-89608819D01*
X130190952Y-89608819D02*
X130095714Y-89608819D01*
X131476666Y-89608819D02*
X130905238Y-89608819D01*
X131190952Y-89608819D02*
X131190952Y-88608819D01*
X131190952Y-88608819D02*
X131095714Y-88751676D01*
X131095714Y-88751676D02*
X131000476Y-88846914D01*
X131000476Y-88846914D02*
X130905238Y-88894533D01*
D11*
X92844000Y-117675469D02*
X92604000Y-117332612D01*
X92432571Y-117675469D02*
X92432571Y-116955469D01*
X92432571Y-116955469D02*
X92706857Y-116955469D01*
X92706857Y-116955469D02*
X92775428Y-116989755D01*
X92775428Y-116989755D02*
X92809714Y-117024041D01*
X92809714Y-117024041D02*
X92844000Y-117092612D01*
X92844000Y-117092612D02*
X92844000Y-117195469D01*
X92844000Y-117195469D02*
X92809714Y-117264041D01*
X92809714Y-117264041D02*
X92775428Y-117298326D01*
X92775428Y-117298326D02*
X92706857Y-117332612D01*
X92706857Y-117332612D02*
X92432571Y-117332612D01*
X93529714Y-117675469D02*
X93118285Y-117675469D01*
X93324000Y-117675469D02*
X93324000Y-116955469D01*
X93324000Y-116955469D02*
X93255428Y-117058326D01*
X93255428Y-117058326D02*
X93186857Y-117126898D01*
X93186857Y-117126898D02*
X93118285Y-117161184D01*
X133454000Y-117675469D02*
X133214000Y-117332612D01*
X133042571Y-117675469D02*
X133042571Y-116955469D01*
X133042571Y-116955469D02*
X133316857Y-116955469D01*
X133316857Y-116955469D02*
X133385428Y-116989755D01*
X133385428Y-116989755D02*
X133419714Y-117024041D01*
X133419714Y-117024041D02*
X133454000Y-117092612D01*
X133454000Y-117092612D02*
X133454000Y-117195469D01*
X133454000Y-117195469D02*
X133419714Y-117264041D01*
X133419714Y-117264041D02*
X133385428Y-117298326D01*
X133385428Y-117298326D02*
X133316857Y-117332612D01*
X133316857Y-117332612D02*
X133042571Y-117332612D01*
X134105428Y-116955469D02*
X133762571Y-116955469D01*
X133762571Y-116955469D02*
X133728285Y-117298326D01*
X133728285Y-117298326D02*
X133762571Y-117264041D01*
X133762571Y-117264041D02*
X133831143Y-117229755D01*
X133831143Y-117229755D02*
X134002571Y-117229755D01*
X134002571Y-117229755D02*
X134071143Y-117264041D01*
X134071143Y-117264041D02*
X134105428Y-117298326D01*
X134105428Y-117298326D02*
X134139714Y-117366898D01*
X134139714Y-117366898D02*
X134139714Y-117538326D01*
X134139714Y-117538326D02*
X134105428Y-117606898D01*
X134105428Y-117606898D02*
X134071143Y-117641184D01*
X134071143Y-117641184D02*
X134002571Y-117675469D01*
X134002571Y-117675469D02*
X133831143Y-117675469D01*
X133831143Y-117675469D02*
X133762571Y-117641184D01*
X133762571Y-117641184D02*
X133728285Y-117606898D01*
D10*
X104428666Y-64478819D02*
X104428666Y-65193104D01*
X104428666Y-65193104D02*
X104381047Y-65335961D01*
X104381047Y-65335961D02*
X104285809Y-65431200D01*
X104285809Y-65431200D02*
X104142952Y-65478819D01*
X104142952Y-65478819D02*
X104047714Y-65478819D01*
X105333428Y-64478819D02*
X105142952Y-64478819D01*
X105142952Y-64478819D02*
X105047714Y-64526438D01*
X105047714Y-64526438D02*
X105000095Y-64574057D01*
X105000095Y-64574057D02*
X104904857Y-64716914D01*
X104904857Y-64716914D02*
X104857238Y-64907390D01*
X104857238Y-64907390D02*
X104857238Y-65288342D01*
X104857238Y-65288342D02*
X104904857Y-65383580D01*
X104904857Y-65383580D02*
X104952476Y-65431200D01*
X104952476Y-65431200D02*
X105047714Y-65478819D01*
X105047714Y-65478819D02*
X105238190Y-65478819D01*
X105238190Y-65478819D02*
X105333428Y-65431200D01*
X105333428Y-65431200D02*
X105381047Y-65383580D01*
X105381047Y-65383580D02*
X105428666Y-65288342D01*
X105428666Y-65288342D02*
X105428666Y-65050247D01*
X105428666Y-65050247D02*
X105381047Y-64955009D01*
X105381047Y-64955009D02*
X105333428Y-64907390D01*
X105333428Y-64907390D02*
X105238190Y-64859771D01*
X105238190Y-64859771D02*
X105047714Y-64859771D01*
X105047714Y-64859771D02*
X104952476Y-64907390D01*
X104952476Y-64907390D02*
X104904857Y-64955009D01*
X104904857Y-64955009D02*
X104857238Y-65050247D01*
X87458819Y-80517523D02*
X86458819Y-80517523D01*
X86458819Y-80517523D02*
X86458819Y-80136571D01*
X86458819Y-80136571D02*
X86506438Y-80041333D01*
X86506438Y-80041333D02*
X86554057Y-79993714D01*
X86554057Y-79993714D02*
X86649295Y-79946095D01*
X86649295Y-79946095D02*
X86792152Y-79946095D01*
X86792152Y-79946095D02*
X86887390Y-79993714D01*
X86887390Y-79993714D02*
X86935009Y-80041333D01*
X86935009Y-80041333D02*
X86982628Y-80136571D01*
X86982628Y-80136571D02*
X86982628Y-80517523D01*
X86458819Y-79612761D02*
X87458819Y-79374666D01*
X87458819Y-79374666D02*
X86744533Y-79184190D01*
X86744533Y-79184190D02*
X87458819Y-78993714D01*
X87458819Y-78993714D02*
X86458819Y-78755619D01*
X87458819Y-77803238D02*
X86982628Y-78136571D01*
X87458819Y-78374666D02*
X86458819Y-78374666D01*
X86458819Y-78374666D02*
X86458819Y-77993714D01*
X86458819Y-77993714D02*
X86506438Y-77898476D01*
X86506438Y-77898476D02*
X86554057Y-77850857D01*
X86554057Y-77850857D02*
X86649295Y-77803238D01*
X86649295Y-77803238D02*
X86792152Y-77803238D01*
X86792152Y-77803238D02*
X86887390Y-77850857D01*
X86887390Y-77850857D02*
X86935009Y-77898476D01*
X86935009Y-77898476D02*
X86982628Y-77993714D01*
X86982628Y-77993714D02*
X86982628Y-78374666D01*
X87458819Y-76850857D02*
X87458819Y-77422285D01*
X87458819Y-77136571D02*
X86458819Y-77136571D01*
X86458819Y-77136571D02*
X86601676Y-77231809D01*
X86601676Y-77231809D02*
X86696914Y-77327047D01*
X86696914Y-77327047D02*
X86744533Y-77422285D01*
X95587110Y-61890743D02*
X95060339Y-61645017D01*
X95092238Y-62176458D02*
X94592238Y-61310432D01*
X94592238Y-61310432D02*
X94922153Y-61119956D01*
X94922153Y-61119956D02*
X95028441Y-61113576D01*
X95028441Y-61113576D02*
X95093490Y-61131006D01*
X95093490Y-61131006D02*
X95182348Y-61189675D01*
X95182348Y-61189675D02*
X95253777Y-61313393D01*
X95253777Y-61313393D02*
X95260156Y-61419681D01*
X95260156Y-61419681D02*
X95242726Y-61484730D01*
X95242726Y-61484730D02*
X95184057Y-61573588D01*
X95184057Y-61573588D02*
X94854143Y-61764065D01*
X95375785Y-60858051D02*
X95911896Y-60548528D01*
X95911896Y-60548528D02*
X95813697Y-61045109D01*
X95813697Y-61045109D02*
X95937415Y-60973680D01*
X95937415Y-60973680D02*
X96043703Y-60967300D01*
X96043703Y-60967300D02*
X96108752Y-60984730D01*
X96108752Y-60984730D02*
X96197610Y-61043399D01*
X96197610Y-61043399D02*
X96316658Y-61249596D01*
X96316658Y-61249596D02*
X96323038Y-61355884D01*
X96323038Y-61355884D02*
X96305608Y-61420933D01*
X96305608Y-61420933D02*
X96246939Y-61509791D01*
X96246939Y-61509791D02*
X95999503Y-61652648D01*
X95999503Y-61652648D02*
X95893215Y-61659028D01*
X95893215Y-61659028D02*
X95828166Y-61641598D01*
X134150666Y-63854819D02*
X134150666Y-64569104D01*
X134150666Y-64569104D02*
X134103047Y-64711961D01*
X134103047Y-64711961D02*
X134007809Y-64807200D01*
X134007809Y-64807200D02*
X133864952Y-64854819D01*
X133864952Y-64854819D02*
X133769714Y-64854819D01*
X134531619Y-63854819D02*
X135198285Y-63854819D01*
X135198285Y-63854819D02*
X134769714Y-64854819D01*
D11*
X133484000Y-112595469D02*
X133244000Y-112252612D01*
X133072571Y-112595469D02*
X133072571Y-111875469D01*
X133072571Y-111875469D02*
X133346857Y-111875469D01*
X133346857Y-111875469D02*
X133415428Y-111909755D01*
X133415428Y-111909755D02*
X133449714Y-111944041D01*
X133449714Y-111944041D02*
X133484000Y-112012612D01*
X133484000Y-112012612D02*
X133484000Y-112115469D01*
X133484000Y-112115469D02*
X133449714Y-112184041D01*
X133449714Y-112184041D02*
X133415428Y-112218326D01*
X133415428Y-112218326D02*
X133346857Y-112252612D01*
X133346857Y-112252612D02*
X133072571Y-112252612D01*
X133724000Y-111875469D02*
X134204000Y-111875469D01*
X134204000Y-111875469D02*
X133895428Y-112595469D01*
D10*
X95126415Y-127471825D02*
X95075835Y-126892766D01*
X94631543Y-127186111D02*
X95131543Y-126320086D01*
X95131543Y-126320086D02*
X95461458Y-126510562D01*
X95461458Y-126510562D02*
X95520127Y-126599420D01*
X95520127Y-126599420D02*
X95537556Y-126664469D01*
X95537556Y-126664469D02*
X95531177Y-126770757D01*
X95531177Y-126770757D02*
X95459748Y-126894475D01*
X95459748Y-126894475D02*
X95370890Y-126953144D01*
X95370890Y-126953144D02*
X95305841Y-126970574D01*
X95305841Y-126970574D02*
X95199553Y-126964194D01*
X95199553Y-126964194D02*
X94869638Y-126773718D01*
X95908710Y-126878755D02*
X95973759Y-126861325D01*
X95973759Y-126861325D02*
X96080047Y-126867705D01*
X96080047Y-126867705D02*
X96286244Y-126986752D01*
X96286244Y-126986752D02*
X96344913Y-127075611D01*
X96344913Y-127075611D02*
X96362343Y-127140659D01*
X96362343Y-127140659D02*
X96355963Y-127246948D01*
X96355963Y-127246948D02*
X96308344Y-127329426D01*
X96308344Y-127329426D02*
X96195676Y-127429335D01*
X96195676Y-127429335D02*
X95415090Y-127638492D01*
X95415090Y-127638492D02*
X95951201Y-127948016D01*
D11*
X133414000Y-115135469D02*
X133174000Y-114792612D01*
X133002571Y-115135469D02*
X133002571Y-114415469D01*
X133002571Y-114415469D02*
X133276857Y-114415469D01*
X133276857Y-114415469D02*
X133345428Y-114449755D01*
X133345428Y-114449755D02*
X133379714Y-114484041D01*
X133379714Y-114484041D02*
X133414000Y-114552612D01*
X133414000Y-114552612D02*
X133414000Y-114655469D01*
X133414000Y-114655469D02*
X133379714Y-114724041D01*
X133379714Y-114724041D02*
X133345428Y-114758326D01*
X133345428Y-114758326D02*
X133276857Y-114792612D01*
X133276857Y-114792612D02*
X133002571Y-114792612D01*
X134031143Y-114655469D02*
X134031143Y-115135469D01*
X133859714Y-114381184D02*
X133688285Y-114895469D01*
X133688285Y-114895469D02*
X134134000Y-114895469D01*
D10*
X151157004Y-74944426D02*
X150509642Y-75246297D01*
X150509642Y-75246297D02*
X150360045Y-75263513D01*
X150360045Y-75263513D02*
X150233480Y-75217447D01*
X150233480Y-75217447D02*
X150129949Y-75108100D01*
X150129949Y-75108100D02*
X150089699Y-75021785D01*
X151030208Y-75686596D02*
X151033116Y-75580157D01*
X151033116Y-75580157D02*
X151056149Y-75516874D01*
X151056149Y-75516874D02*
X151122339Y-75433468D01*
X151122339Y-75433468D02*
X151165497Y-75413343D01*
X151165497Y-75413343D02*
X151271936Y-75416251D01*
X151271936Y-75416251D02*
X151335218Y-75439284D01*
X151335218Y-75439284D02*
X151418625Y-75505474D01*
X151418625Y-75505474D02*
X151499124Y-75678104D01*
X151499124Y-75678104D02*
X151496216Y-75784544D01*
X151496216Y-75784544D02*
X151473183Y-75847826D01*
X151473183Y-75847826D02*
X151406993Y-75931233D01*
X151406993Y-75931233D02*
X151363835Y-75951358D01*
X151363835Y-75951358D02*
X151257396Y-75948450D01*
X151257396Y-75948450D02*
X151194113Y-75925417D01*
X151194113Y-75925417D02*
X151110706Y-75859226D01*
X151110706Y-75859226D02*
X151030208Y-75686596D01*
X151030208Y-75686596D02*
X150946801Y-75620406D01*
X150946801Y-75620406D02*
X150883519Y-75597373D01*
X150883519Y-75597373D02*
X150777079Y-75594465D01*
X150777079Y-75594465D02*
X150604449Y-75674964D01*
X150604449Y-75674964D02*
X150538259Y-75758371D01*
X150538259Y-75758371D02*
X150515226Y-75821653D01*
X150515226Y-75821653D02*
X150512318Y-75928093D01*
X150512318Y-75928093D02*
X150592816Y-76100723D01*
X150592816Y-76100723D02*
X150676223Y-76166913D01*
X150676223Y-76166913D02*
X150739505Y-76189946D01*
X150739505Y-76189946D02*
X150845945Y-76192854D01*
X150845945Y-76192854D02*
X151018575Y-76112355D01*
X151018575Y-76112355D02*
X151084765Y-76028948D01*
X151084765Y-76028948D02*
X151107798Y-75965666D01*
X151107798Y-75965666D02*
X151110706Y-75859226D01*
X118287095Y-123943819D02*
X118287095Y-124753342D01*
X118287095Y-124753342D02*
X118334714Y-124848580D01*
X118334714Y-124848580D02*
X118382333Y-124896200D01*
X118382333Y-124896200D02*
X118477571Y-124943819D01*
X118477571Y-124943819D02*
X118668047Y-124943819D01*
X118668047Y-124943819D02*
X118763285Y-124896200D01*
X118763285Y-124896200D02*
X118810904Y-124848580D01*
X118810904Y-124848580D02*
X118858523Y-124753342D01*
X118858523Y-124753342D02*
X118858523Y-123943819D01*
X119810904Y-123943819D02*
X119334714Y-123943819D01*
X119334714Y-123943819D02*
X119287095Y-124420009D01*
X119287095Y-124420009D02*
X119334714Y-124372390D01*
X119334714Y-124372390D02*
X119429952Y-124324771D01*
X119429952Y-124324771D02*
X119668047Y-124324771D01*
X119668047Y-124324771D02*
X119763285Y-124372390D01*
X119763285Y-124372390D02*
X119810904Y-124420009D01*
X119810904Y-124420009D02*
X119858523Y-124515247D01*
X119858523Y-124515247D02*
X119858523Y-124753342D01*
X119858523Y-124753342D02*
X119810904Y-124848580D01*
X119810904Y-124848580D02*
X119763285Y-124896200D01*
X119763285Y-124896200D02*
X119668047Y-124943819D01*
X119668047Y-124943819D02*
X119429952Y-124943819D01*
X119429952Y-124943819D02*
X119334714Y-124896200D01*
X119334714Y-124896200D02*
X119287095Y-124848580D01*
X150239249Y-112998632D02*
X150886612Y-113300502D01*
X150886612Y-113300502D02*
X150995960Y-113404034D01*
X150995960Y-113404034D02*
X151042025Y-113530598D01*
X151042025Y-113530598D02*
X151024809Y-113680195D01*
X151024809Y-113680195D02*
X150984559Y-113766510D01*
X151366928Y-112946517D02*
X151447427Y-112773887D01*
X151447427Y-112773887D02*
X151444519Y-112667447D01*
X151444519Y-112667447D02*
X151421486Y-112604165D01*
X151421486Y-112604165D02*
X151332263Y-112457476D01*
X151332263Y-112457476D02*
X151179757Y-112333820D01*
X151179757Y-112333820D02*
X150834497Y-112172823D01*
X150834497Y-112172823D02*
X150728058Y-112175731D01*
X150728058Y-112175731D02*
X150664775Y-112198764D01*
X150664775Y-112198764D02*
X150581369Y-112264954D01*
X150581369Y-112264954D02*
X150500870Y-112437584D01*
X150500870Y-112437584D02*
X150503778Y-112544024D01*
X150503778Y-112544024D02*
X150526811Y-112607306D01*
X150526811Y-112607306D02*
X150593001Y-112690713D01*
X150593001Y-112690713D02*
X150808789Y-112791336D01*
X150808789Y-112791336D02*
X150915228Y-112788428D01*
X150915228Y-112788428D02*
X150978511Y-112765395D01*
X150978511Y-112765395D02*
X151061918Y-112699205D01*
X151061918Y-112699205D02*
X151142416Y-112526575D01*
X151142416Y-112526575D02*
X151139508Y-112420135D01*
X151139508Y-112420135D02*
X151116475Y-112356853D01*
X151116475Y-112356853D02*
X151050285Y-112273446D01*
X149009819Y-95126904D02*
X149819342Y-95126904D01*
X149819342Y-95126904D02*
X149914580Y-95079285D01*
X149914580Y-95079285D02*
X149962200Y-95031666D01*
X149962200Y-95031666D02*
X150009819Y-94936428D01*
X150009819Y-94936428D02*
X150009819Y-94745952D01*
X150009819Y-94745952D02*
X149962200Y-94650714D01*
X149962200Y-94650714D02*
X149914580Y-94603095D01*
X149914580Y-94603095D02*
X149819342Y-94555476D01*
X149819342Y-94555476D02*
X149009819Y-94555476D01*
X149009819Y-94174523D02*
X149009819Y-93555476D01*
X149009819Y-93555476D02*
X149390771Y-93888809D01*
X149390771Y-93888809D02*
X149390771Y-93745952D01*
X149390771Y-93745952D02*
X149438390Y-93650714D01*
X149438390Y-93650714D02*
X149486009Y-93603095D01*
X149486009Y-93603095D02*
X149581247Y-93555476D01*
X149581247Y-93555476D02*
X149819342Y-93555476D01*
X149819342Y-93555476D02*
X149914580Y-93603095D01*
X149914580Y-93603095D02*
X149962200Y-93650714D01*
X149962200Y-93650714D02*
X150009819Y-93745952D01*
X150009819Y-93745952D02*
X150009819Y-94031666D01*
X150009819Y-94031666D02*
X149962200Y-94126904D01*
X149962200Y-94126904D02*
X149914580Y-94174523D01*
X117867095Y-63388819D02*
X117867095Y-64198342D01*
X117867095Y-64198342D02*
X117914714Y-64293580D01*
X117914714Y-64293580D02*
X117962333Y-64341200D01*
X117962333Y-64341200D02*
X118057571Y-64388819D01*
X118057571Y-64388819D02*
X118248047Y-64388819D01*
X118248047Y-64388819D02*
X118343285Y-64341200D01*
X118343285Y-64341200D02*
X118390904Y-64293580D01*
X118390904Y-64293580D02*
X118438523Y-64198342D01*
X118438523Y-64198342D02*
X118438523Y-63388819D01*
X118867095Y-63484057D02*
X118914714Y-63436438D01*
X118914714Y-63436438D02*
X119009952Y-63388819D01*
X119009952Y-63388819D02*
X119248047Y-63388819D01*
X119248047Y-63388819D02*
X119343285Y-63436438D01*
X119343285Y-63436438D02*
X119390904Y-63484057D01*
X119390904Y-63484057D02*
X119438523Y-63579295D01*
X119438523Y-63579295D02*
X119438523Y-63674533D01*
X119438523Y-63674533D02*
X119390904Y-63817390D01*
X119390904Y-63817390D02*
X118819476Y-64388819D01*
X118819476Y-64388819D02*
X119438523Y-64388819D01*
D12*
X120504000Y-127580000D02*
X120904000Y-127580000D01*
X120274000Y-127580000D02*
X120274000Y-127580000D01*
X120274000Y-127580000D02*
X120274000Y-126310000D01*
X120274000Y-126310000D02*
X120274000Y-127580000D01*
X120274000Y-126310000D02*
X120274000Y-126310000D01*
X117734000Y-127580000D02*
X117734000Y-127580000D01*
X117734000Y-127580000D02*
X117734000Y-126310000D01*
X117734000Y-126310000D02*
X117734000Y-127580000D01*
X117734000Y-126310000D02*
X117734000Y-126310000D01*
X117504000Y-127580000D02*
X120504000Y-127580000D01*
X117174000Y-60750000D02*
X116774000Y-60750000D01*
X117404000Y-60750000D02*
X117404000Y-60750000D01*
X117404000Y-60750000D02*
X117404000Y-62020000D01*
X117404000Y-62020000D02*
X117404000Y-60750000D01*
X117404000Y-62020000D02*
X117404000Y-62020000D01*
X119944000Y-60750000D02*
X119944000Y-60750000D01*
X119944000Y-60750000D02*
X119944000Y-62020000D01*
X119944000Y-62020000D02*
X119944000Y-60750000D01*
X119944000Y-62020000D02*
X119944000Y-62020000D01*
X120174000Y-60750000D02*
X117174000Y-60750000D01*
X85444000Y-95790000D02*
X85444000Y-96190000D01*
X85444000Y-95560000D02*
X85444000Y-95560000D01*
X85444000Y-95560000D02*
X86714000Y-95560000D01*
X86714000Y-95560000D02*
X85444000Y-95560000D01*
X86714000Y-95560000D02*
X86714000Y-95560000D01*
X85444000Y-93020000D02*
X85444000Y-93020000D01*
X85444000Y-93020000D02*
X86714000Y-93020000D01*
X86714000Y-93020000D02*
X85444000Y-93020000D01*
X86714000Y-93020000D02*
X86714000Y-93020000D01*
X85444000Y-92790000D02*
X85444000Y-95790000D01*
X152804000Y-93030000D02*
X152804000Y-92630000D01*
X152804000Y-93260000D02*
X152804000Y-93260000D01*
X152804000Y-93260000D02*
X151534000Y-93260000D01*
X151534000Y-93260000D02*
X152804000Y-93260000D01*
X151534000Y-93260000D02*
X151534000Y-93260000D01*
X152804000Y-95800000D02*
X152804000Y-95800000D01*
X152804000Y-95800000D02*
X151534000Y-95800000D01*
X151534000Y-95800000D02*
X152804000Y-95800000D01*
X151534000Y-95800000D02*
X151534000Y-95800000D01*
X152804000Y-96030000D02*
X152804000Y-93030000D01*
X87672182Y-91807714D02*
G75*
G03*
X87694000Y-96798000I1121818J-2490286D01*
G01*
X87744000Y-97258000D02*
X87744000Y-91458000D01*
X91194000Y-97258000D02*
X87744000Y-97258000D01*
X91194000Y-92208000D02*
X91194000Y-97258000D01*
X91194000Y-92208000D02*
X90444000Y-91458000D01*
X87744000Y-91458000D02*
X90444000Y-91458000D01*
X102324000Y-80518000D02*
X104864000Y-80518000D01*
X102324000Y-85598000D02*
X102324000Y-80518000D01*
X104229000Y-85598000D02*
X102324000Y-85598000D01*
X104864000Y-80518000D02*
X104864000Y-84963000D01*
X104864000Y-84963000D02*
X104229000Y-85598000D01*
X146842581Y-88092011D02*
G75*
G03*
X150914000Y-88048000I2021419J1344011D01*
G01*
X150885419Y-85403989D02*
G75*
G03*
X146814000Y-85448000I-2021419J-1344011D01*
G01*
X146814000Y-88048000D02*
X146814000Y-85448000D01*
X150664000Y-87648000D02*
X150064000Y-87648000D01*
X147664000Y-87348000D02*
X148264000Y-87348000D01*
X148264000Y-87348000D02*
X148264000Y-86148000D01*
X148864000Y-87348000D02*
X149364000Y-87348000D01*
X149364000Y-87348000D02*
X149464000Y-87348000D01*
X149464000Y-87348000D02*
X149464000Y-86148000D01*
X148264000Y-86148000D02*
X148864000Y-86148000D01*
X148864000Y-86148000D02*
X148864000Y-87348000D01*
X149464000Y-86148000D02*
X150064000Y-86148000D01*
X150064000Y-86148000D02*
X150064000Y-87648000D01*
X147064000Y-85848000D02*
X147064000Y-87648000D01*
X147664000Y-85848000D02*
X147664000Y-87348000D01*
X147664000Y-85848000D02*
X147064000Y-85848000D01*
X150664000Y-85848000D02*
X150664000Y-87648000D01*
X150914000Y-85448000D02*
X150914000Y-88048000D01*
X133350000Y-100584000D02*
X133350000Y-103124000D01*
X128270000Y-100584000D02*
X133350000Y-100584000D01*
X128270000Y-102489000D02*
X128270000Y-100584000D01*
X133350000Y-103124000D02*
X128905000Y-103124000D01*
X128905000Y-103124000D02*
X128270000Y-102489000D01*
X128270000Y-87884000D02*
X128270000Y-85344000D01*
X133350000Y-87884000D02*
X128270000Y-87884000D01*
X133350000Y-85979000D02*
X133350000Y-87884000D01*
X128270000Y-85344000D02*
X132715000Y-85344000D01*
X132715000Y-85344000D02*
X133350000Y-85979000D01*
X128270000Y-90424000D02*
X128270000Y-87884000D01*
X133350000Y-90424000D02*
X128270000Y-90424000D01*
X133350000Y-88519000D02*
X133350000Y-90424000D01*
X128270000Y-87884000D02*
X132715000Y-87884000D01*
X132715000Y-87884000D02*
X133350000Y-88519000D01*
X89154000Y-117348000D02*
X91164000Y-117348000D01*
X91164000Y-116548000D02*
X91164000Y-118148000D01*
X91164000Y-118148000D02*
X94764000Y-118148000D01*
X94764000Y-116548000D02*
X91164000Y-116548000D01*
X94764000Y-118148000D02*
X94764000Y-116548000D01*
X96774000Y-117348000D02*
X94764000Y-117348000D01*
X129764000Y-117348000D02*
X131774000Y-117348000D01*
X131774000Y-116548000D02*
X131774000Y-118148000D01*
X131774000Y-118148000D02*
X135374000Y-118148000D01*
X135374000Y-116548000D02*
X131774000Y-116548000D01*
X135374000Y-118148000D02*
X135374000Y-116548000D01*
X137384000Y-117348000D02*
X135374000Y-117348000D01*
X107302000Y-63754000D02*
X107302000Y-66294000D01*
X102222000Y-63754000D02*
X107302000Y-63754000D01*
X102222000Y-65659000D02*
X102222000Y-63754000D01*
X107302000Y-66294000D02*
X102857000Y-66294000D01*
X102857000Y-66294000D02*
X102222000Y-65659000D01*
X89019564Y-78708000D02*
G75*
G03*
X84988436Y-78708000I-2015564J0D01*
G01*
X84988436Y-78708000D02*
G75*
G03*
X89019564Y-78708000I2015564J0D01*
G01*
X90004000Y-75708000D02*
X90004000Y-81708000D01*
X84004000Y-75708000D02*
X90004000Y-75708000D01*
X84004000Y-78708000D02*
X84004000Y-75708000D01*
X90004000Y-81708000D02*
X84004000Y-81708000D01*
X84004000Y-81708000D02*
X84004000Y-78708000D01*
X99128695Y-65003595D02*
G75*
G03*
X97054871Y-61499648I-2174657J1078595D01*
G01*
X94779381Y-62846405D02*
G75*
G03*
X96853205Y-66350352I2174657J-1078595D01*
G01*
X99104871Y-65050352D02*
X96853205Y-66350352D01*
X96833461Y-61916154D02*
X97133461Y-62435770D01*
X98073653Y-64664230D02*
X97773653Y-64144615D01*
X97773653Y-64144615D02*
X96734423Y-64744615D01*
X97473653Y-63625000D02*
X97223653Y-63191987D01*
X97223653Y-63191987D02*
X97173653Y-63105385D01*
X97173653Y-63105385D02*
X96134423Y-63705385D01*
X96734423Y-64744615D02*
X96434423Y-64225000D01*
X96434423Y-64225000D02*
X97473653Y-63625000D01*
X96134423Y-63705385D02*
X95834423Y-63185770D01*
X95834423Y-63185770D02*
X97133461Y-62435770D01*
X97074615Y-65933846D02*
X98633461Y-65033846D01*
X96774615Y-65414230D02*
X98073653Y-64664230D01*
X96774615Y-65414230D02*
X97074615Y-65933846D01*
X95274615Y-62816154D02*
X96833461Y-61916154D01*
X94803205Y-62799648D02*
X97054871Y-61499648D01*
X139564000Y-63130000D02*
X139564000Y-65670000D01*
X129404000Y-63130000D02*
X139564000Y-63130000D01*
X129404000Y-65035000D02*
X129404000Y-63130000D01*
X139564000Y-65670000D02*
X130039000Y-65670000D01*
X130039000Y-65670000D02*
X129404000Y-65035000D01*
X86790235Y-123976298D02*
G75*
G03*
X88911553Y-126097616I1060659J-1060659D01*
G01*
X91174296Y-124400561D02*
X90891453Y-124117718D01*
X91881403Y-123693454D02*
X91174296Y-124400561D01*
X90891453Y-124117718D02*
X91598560Y-123410611D01*
X91598560Y-123410611D02*
X91881403Y-123693454D01*
X91598560Y-123410611D02*
X88911554Y-126097617D01*
X91435926Y-123247977D02*
X91435926Y-123247977D01*
X91435926Y-123247977D02*
X92333951Y-122349951D01*
X92333951Y-122349951D02*
X91435926Y-123247977D01*
X92333951Y-122349951D02*
X92333951Y-122349951D01*
X89639874Y-121451926D02*
X89639874Y-121451926D01*
X89639874Y-121451926D02*
X90537900Y-120553900D01*
X90537900Y-120553900D02*
X89639874Y-121451926D01*
X90537900Y-120553900D02*
X90537900Y-120553900D01*
X89477240Y-121289291D02*
X91598560Y-123410611D01*
X89477240Y-121289291D02*
X86790234Y-123976297D01*
X129794000Y-112268000D02*
X131804000Y-112268000D01*
X131804000Y-111468000D02*
X131804000Y-113068000D01*
X131804000Y-113068000D02*
X135404000Y-113068000D01*
X135404000Y-111468000D02*
X131804000Y-111468000D01*
X135404000Y-113068000D02*
X135404000Y-111468000D01*
X137414000Y-112268000D02*
X135404000Y-112268000D01*
X96794924Y-122227195D02*
G75*
G03*
X94797329Y-125775152I153238J-2422605D01*
G01*
X97101400Y-127072405D02*
G75*
G03*
X99098995Y-123524448I-153238J2422605D01*
G01*
X96847329Y-122224448D02*
X99098995Y-123524448D01*
X95268739Y-125758646D02*
X95568739Y-125239030D01*
X97028547Y-123310570D02*
X96728547Y-123830185D01*
X96728547Y-123830185D02*
X97767777Y-124430185D01*
X96428547Y-124349800D02*
X96178547Y-124782813D01*
X96178547Y-124782813D02*
X96128547Y-124869415D01*
X96128547Y-124869415D02*
X97167777Y-125469415D01*
X97767777Y-124430185D02*
X97467777Y-124949800D01*
X97467777Y-124949800D02*
X96428547Y-124349800D01*
X97167777Y-125469415D02*
X96867777Y-125989030D01*
X96867777Y-125989030D02*
X95568739Y-125239030D01*
X98627585Y-123540954D02*
X97068739Y-122640954D01*
X98327585Y-124060570D02*
X97028547Y-123310570D01*
X98327585Y-124060570D02*
X98627585Y-123540954D01*
X96827585Y-126658646D02*
X95268739Y-125758646D01*
X97048995Y-127075152D02*
X94797329Y-125775152D01*
X129724000Y-114808000D02*
X131734000Y-114808000D01*
X131734000Y-114008000D02*
X131734000Y-115608000D01*
X131734000Y-115608000D02*
X135334000Y-115608000D01*
X135334000Y-114008000D02*
X131734000Y-114008000D01*
X135334000Y-115608000D02*
X135334000Y-114008000D01*
X137344000Y-114808000D02*
X135334000Y-114808000D01*
X148886398Y-126187665D02*
G75*
G03*
X151007716Y-124066347I1060659J1060659D01*
G01*
X149310661Y-121803604D02*
X149027818Y-122086447D01*
X148603554Y-121096497D02*
X149310661Y-121803604D01*
X149027818Y-122086447D02*
X148320711Y-121379340D01*
X148320711Y-121379340D02*
X148603554Y-121096497D01*
X148320711Y-121379340D02*
X151007717Y-124066346D01*
X148158077Y-121541974D02*
X148158077Y-121541974D01*
X148158077Y-121541974D02*
X147260051Y-120643949D01*
X147260051Y-120643949D02*
X148158077Y-121541974D01*
X147260051Y-120643949D02*
X147260051Y-120643949D01*
X146362026Y-123338026D02*
X146362026Y-123338026D01*
X146362026Y-123338026D02*
X145464000Y-122440000D01*
X145464000Y-122440000D02*
X146362026Y-123338026D01*
X145464000Y-122440000D02*
X145464000Y-122440000D01*
X146199391Y-123500660D02*
X148320711Y-121379340D01*
X146199391Y-123500660D02*
X148886397Y-126187666D01*
X154101687Y-79544251D02*
X151799665Y-80617701D01*
X149807886Y-70336164D02*
X154101687Y-79544251D01*
X148081369Y-71141252D02*
X149807886Y-70336164D01*
X151799665Y-80617701D02*
X147774227Y-71985120D01*
X147774227Y-71985120D02*
X148081369Y-71141252D01*
X116523714Y-125444818D02*
G75*
G03*
X121514000Y-125423000I2490286J1121818D01*
G01*
X121974000Y-125373000D02*
X116174000Y-125373000D01*
X121974000Y-121923000D02*
X121974000Y-125373000D01*
X116924000Y-121923000D02*
X121974000Y-121923000D01*
X116924000Y-121923000D02*
X116174000Y-122673000D01*
X116174000Y-125373000D02*
X116174000Y-122673000D01*
X149878335Y-118067701D02*
X147576313Y-116994251D01*
X154172136Y-108859614D02*
X149878335Y-118067701D01*
X152445620Y-108054527D02*
X154172136Y-108859614D01*
X147576313Y-116994251D02*
X151601752Y-108361669D01*
X151601752Y-108361669D02*
X152445620Y-108054527D01*
X150510818Y-96890286D02*
G75*
G03*
X150489000Y-91900000I-1121818J2490286D01*
G01*
X150439000Y-91440000D02*
X150439000Y-97240000D01*
X146989000Y-91440000D02*
X150439000Y-91440000D01*
X146989000Y-96490000D02*
X146989000Y-91440000D01*
X146989000Y-96490000D02*
X147739000Y-97240000D01*
X150439000Y-97240000D02*
X147739000Y-97240000D01*
X121154286Y-62978182D02*
G75*
G03*
X116164000Y-63000000I-2490286J-1121818D01*
G01*
X115704000Y-63050000D02*
X121504000Y-63050000D01*
X115704000Y-66500000D02*
X115704000Y-63050000D01*
X120754000Y-66500000D02*
X115704000Y-66500000D01*
X120754000Y-66500000D02*
X121504000Y-65750000D01*
X121504000Y-63050000D02*
X121504000Y-65750000D01*
X88867702Y-62486235D02*
G75*
G03*
X86746384Y-64607553I-1060659J-1060659D01*
G01*
X88443439Y-66870296D02*
X88726282Y-66587453D01*
X89150546Y-67577403D02*
X88443439Y-66870296D01*
X88726282Y-66587453D02*
X89433389Y-67294560D01*
X89433389Y-67294560D02*
X89150546Y-67577403D01*
X89433389Y-67294560D02*
X86746383Y-64607554D01*
X89596023Y-67131926D02*
X89596023Y-67131926D01*
X89596023Y-67131926D02*
X90494049Y-68029951D01*
X90494049Y-68029951D02*
X89596023Y-67131926D01*
X90494049Y-68029951D02*
X90494049Y-68029951D01*
X91392074Y-65335874D02*
X91392074Y-65335874D01*
X91392074Y-65335874D02*
X92290100Y-66233900D01*
X92290100Y-66233900D02*
X91392074Y-65335874D01*
X92290100Y-66233900D02*
X92290100Y-66233900D01*
X91554709Y-65173240D02*
X89433389Y-67294560D01*
X91554709Y-65173240D02*
X88867703Y-62486234D01*
X150991665Y-64817602D02*
G75*
G03*
X148870347Y-62696284I-1060659J1060659D01*
G01*
X146607604Y-64393339D02*
X146890447Y-64676182D01*
X145900497Y-65100446D02*
X146607604Y-64393339D01*
X146890447Y-64676182D02*
X146183340Y-65383289D01*
X146183340Y-65383289D02*
X145900497Y-65100446D01*
X146183340Y-65383289D02*
X148870346Y-62696283D01*
X146345974Y-65545923D02*
X146345974Y-65545923D01*
X146345974Y-65545923D02*
X145447949Y-66443949D01*
X145447949Y-66443949D02*
X146345974Y-65545923D01*
X145447949Y-66443949D02*
X145447949Y-66443949D01*
X148142026Y-67341974D02*
X148142026Y-67341974D01*
X148142026Y-67341974D02*
X147244000Y-68240000D01*
X147244000Y-68240000D02*
X148142026Y-67341974D01*
X147244000Y-68240000D02*
X147244000Y-68240000D01*
X148304660Y-67504609D02*
X146183340Y-65383289D01*
X148304660Y-67504609D02*
X150991666Y-64817603D01*
M02*
